<svg width="127" height="155" viewBox="0 0 127 155" fill="none" xmlns="http://www.w3.org/2000/svg">
<path d="M60 155C61.5247 155 63.727 153.162 63.727 153.162C128.103 91.391 119.632 61 119.632 61C119.632 61 100.997 110.615 60 110.756" fill="url(#paint0_linear_0_1)"/>
<path d="M60 155C58.6532 155 56.7078 153.162 56.7078 153.162C-0.157528 91.391 7.32475 61 7.32475 61C7.32475 61 23.7858 110.615 60 110.756" fill="url(#paint1_linear_0_1)"/>
<path d="M63.5 114C28.4299 114 7.62939e-06 88.4802 7.62939e-06 57C7.62939e-06 25.5198 28.4299 0 63.5 0C98.5701 0 127 25.5198 127 57C127 88.4802 98.5701 114 63.5 114Z" fill="url(#paint2_linear_0_1)"/>
<path d="M63.5 88C46.6553 88 33 73.0015 33 54.5C33 35.9985 46.6553 21 63.5 21C80.3447 21 94 35.9985 94 54.5C94 73.0015 80.3447 88 63.5 88Z" fill="#080813"/>
<defs>
<linearGradient id="paint0_linear_0_1" x1="90" y1="61" x2="90" y2="155" gradientUnits="userSpaceOnUse">
<stop stop-color="#098FDB"/>
<stop offset="1" stop-color="#001243"/>
</linearGradient>
<linearGradient id="paint1_linear_0_1" x1="33.5" y1="61" x2="33.5" y2="155" gradientUnits="userSpaceOnUse">
<stop stop-color="#098FDB"/>
<stop offset="1" stop-color="#001243"/>
</linearGradient>
<linearGradient id="paint2_linear_0_1" x1="63.5" y1="0" x2="63.5" y2="114" gradientUnits="userSpaceOnUse">
<stop stop-color="#098FDB"/>
<stop offset="1" stop-color="#001243"/>
</linearGradient>
</defs>
</svg>
